HIERARCHY
ROOT Hips
{
	OFFSET -3.958830 18.904000 13.208200
	CHANNELS 6 Xposition Yposition Zposition Zrotation Yrotation Xrotation 
	JOINT LHipJoint
	{
		OFFSET 0.000000 0.000000 0.000000
		CHANNELS 3 Zrotation Yrotation Xrotation
		JOINT LeftUpLeg
		{
			OFFSET 1.800000 -1.400000 0.085000
			CHANNELS 3 Zrotation Yrotation Xrotation
			JOINT LeftLeg
			{
				OFFSET 2.215000 -6.000000 0.000000
				CHANNELS 3 Zrotation Yrotation Xrotation
				JOINT LeftFoot
				{
					OFFSET 2.500000 -6.900000 0.000000
					CHANNELS 3 Zrotation Yrotation Xrotation
					JOINT LeftToeBase
					{
						OFFSET 0.200000 -0.500000 1.950000
						CHANNELS 3 Zrotation Yrotation Xrotation
						End Site
						{
							OFFSET 0.000000 0.000000 0.000000
						}
					}
				}
			}
		}
	}
	JOINT RHipJoint
	{
		OFFSET 0.000000 0.000000 0.000000
		CHANNELS 3 Zrotation Yrotation Xrotation
		JOINT RightUpLeg
		{
			OFFSET -1.800000 -1.400000 0.085000
			CHANNELS 3 Zrotation Yrotation Xrotation
			JOINT RightLeg
			{
				OFFSET -2.215000 -6.000000 0.000000
				CHANNELS 3 Zrotation Yrotation Xrotation
				JOINT RightFoot
				{
					OFFSET -2.500000 -6.900000 0.000000
					CHANNELS 3 Zrotation Yrotation Xrotation
					JOINT RightToeBase
					{
						OFFSET -0.200000 -0.500000 1.950000
						CHANNELS 3 Zrotation Yrotation Xrotation
						End Site
						{
							OFFSET 0.000000 0.000000 0.000000
						}
					}
				}
			}
		}
	}
	JOINT LowerBack
	{
		OFFSET 0.000000 0.000000 0.000000
		CHANNELS 3 Zrotation Yrotation Xrotation
		JOINT Spine
		{
			OFFSET -0.087000 1.940000 -0.288900
			CHANNELS 3 Zrotation Yrotation Xrotation
			JOINT Spine1
			{
				OFFSET 0.000000 1.950000 0.060000
				CHANNELS 3 Zrotation Yrotation Xrotation
				JOINT Neck
				{
					OFFSET 0.000000 0.000000 0.000000
					CHANNELS 3 Zrotation Yrotation Xrotation
					JOINT Neck1
					{
						OFFSET 0.000000 1.600000 0.340000
						CHANNELS 3 Zrotation Yrotation Xrotation
						JOINT Head
						{
							OFFSET 0.000000 1.667000 -0.240000
							CHANNELS 3 Zrotation Yrotation Xrotation
							End Site
							{
								OFFSET 0.000000 0.000000 0.000000
							}
						}
					}
				}
				JOINT LeftShoulder
				{
					OFFSET 0.000000 0.000000 0.000000
					CHANNELS 3 Zrotation Yrotation Xrotation
					JOINT LeftArm
					{
						OFFSET 2.700000 1.550000 -0.730000
						CHANNELS 3 Zrotation Yrotation Xrotation
						JOINT LeftForeArm
						{
							OFFSET 5.450000 0.000000 0.000000
							CHANNELS 3 Zrotation Yrotation Xrotation
							JOINT LeftHand
							{
								OFFSET 3.450000 0.000000 0.000000
								CHANNELS 3 Zrotation Yrotation Xrotation
								JOINT LeftHandIndex1
								{
									OFFSET 0.750000 0.000000 0.000000
									CHANNELS 3 Zrotation Yrotation Xrotation
									End Site
									{
										OFFSET 0.000000 0.000000 0.000000
									}
								}
							}
						}
					}
				}
				JOINT RightShoulder
				{
					OFFSET 0.000000 0.000000 0.000000
					CHANNELS 3 Zrotation Yrotation Xrotation
					JOINT RightArm
					{
						OFFSET -2.700000 1.550000 -0.730000
						CHANNELS 3 Zrotation Yrotation Xrotation
						JOINT RightForeArm
						{
							OFFSET -5.450000 0.000000 0.000000
							CHANNELS 3 Zrotation Yrotation Xrotation
							JOINT RightHand
							{
								OFFSET -3.450000 0.000000 0.000000
								CHANNELS 3 Zrotation Yrotation Xrotation
								JOINT RightHandIndex1
								{
									OFFSET -0.750000 0.000000 0.000000
									CHANNELS 3 Zrotation Yrotation Xrotation
									End Site
									{
										OFFSET 0.000000 0.000000 0.000000
									}
								}
							}
						}
					}
				}
			}
		}
	}
}
MOTION
Frames: 6
Frame Time: 0.016667
-0.208980 17.054850 -2.310240 -0.593579 -6.748109 1.224731 -15.016842 12.926978 3.001992 -1.280569 -0.865001 -9.259085 -5.845873 4.496656 6.785358 0.006788 3.211268 3.549769 0.067620 0.033390 -0.005000 18.449679 -11.037743 3.053131 -1.118972 -0.529140 -5.972644 5.788920 -3.762755 4.722868 -0.077813 -3.540226 3.243375 0.088720 0.209250 0.050600 -3.951378 -0.824683 -7.478771 9.386890 2.142297 8.108058 0.910227 2.299971 10.287725 0.421221 -2.628832 -9.989826 -7.563753 -1.365000 38.679032 -3.613710 -2.632940 5.405990 6.593764 8.959643 4.635095 -3.589091 11.109801 7.299549 115.220069 -64.131188 -82.711133 -3.933651 2.342910 -0.176850 0.208310 -0.183070 0.093080 -7.113573 -5.206018 5.117695 3.599998 -10.836230 0.575830 -112.140000 51.991801 -66.950477 2.291795 -1.462042 -0.018850 0.038040 -0.023810 0.045530 
-0.199720 17.044530 -2.294080 -0.624973 -4.950099 1.726083 -15.035803 12.895507 3.010247 -1.099564 -0.877279 -9.313227 -6.132144 4.428277 5.964606 -0.009623 3.225511 3.549357 0.058840 0.026000 -0.017470 18.441243 -10.986757 3.063401 -1.090417 -0.483087 -6.061491 6.115347 -3.737381 4.229362 -0.069752 -3.554140 3.238539 0.095540 0.232360 0.055420 -3.936657 -0.860646 -7.517708 9.211737 1.746050 7.941179 0.794117 1.869939 8.985508 0.455036 -1.877833 -9.344782 -6.022957 -1.842119 38.060819 -3.256460 -2.869130 5.302140 6.202095 8.443354 3.532443 -1.958692 10.666649 5.991955 109.181447 -61.912763 -69.697338 -3.863022 2.170615 -0.189460 0.228740 -0.202280 0.088150 -6.852536 -5.464911 4.698773 2.941625 -11.219774 0.096957 -107.709262 51.240504 -59.874206 2.256282 -1.444642 -0.026980 0.044960 -0.007150 0.045810 
-0.193680 17.022770 -2.286680 -0.655551 -4.118003 2.492819 -15.068873 12.906463 3.078303 -0.979343 -0.934606 -9.528041 -6.713830 4.342501 4.737660 0.008792 3.226608 3.553766 0.049020 0.014920 -0.016490 18.405858 -10.908098 3.070685 -1.037252 -0.363889 -6.509445 6.293219 -3.662862 3.878012 -0.054220 -3.511137 3.251145 0.087360 0.235880 0.067020 -3.849020 -1.025958 -7.623703 9.065536 1.481694 8.230143 0.538962 1.680541 6.280388 0.722567 -1.458311 -8.731092 -5.196676 -1.592032 37.602530 -3.601570 -1.982600 5.922950 5.153777 7.210653 1.971039 0.796718 10.627554 3.689420 97.801843 -56.829078 -49.989590 -3.896649 2.513982 -0.203720 0.244960 -0.206250 0.086660 -6.417412 -4.562369 4.410529 1.184504 -12.300784 -0.893626 -101.470899 47.438920 -48.556683 2.319263 -1.634143 -0.023620 0.025290 -0.010020 0.043950 
-0.181570 16.991770 -2.284580 -1.026335 -3.604564 3.329261 -15.069901 12.946714 3.176148 -0.491993 -1.014353 -9.822452 -7.525387 4.269505 3.401232 0.034183 3.247156 3.546581 0.027610 -0.017790 -0.013470 18.383804 -10.835188 3.116233 -0.729748 -0.219795 -7.001574 6.607309 -3.605012 3.505423 -0.045667 -3.436949 3.274996 0.057420 0.222650 0.075300 -3.819802 -1.211836 -7.813213 9.988017 1.144985 9.159099 -0.274756 1.733327 2.687496 1.106772 -1.502288 -8.607786 -5.312141 -1.207071 37.612316 -4.249060 -1.091140 6.495770 2.439314 5.117434 1.147542 4.677786 10.449293 2.458125 89.657821 -46.133714 -34.083630 -4.065190 2.963057 -0.191310 0.242120 -0.195860 0.076140 -4.629675 -2.342883 4.388764 -0.864952 -13.583884 -2.302415 -95.447734 38.390887 -34.817848 2.481234 -1.912090 -0.022500 0.004330 -0.006350 0.034430 
-0.164340 16.966010 -2.290910 -1.308812 -3.308327 3.652446 -15.069221 13.036796 3.260458 -0.160052 -1.038490 -9.902448 -8.001283 4.255657 2.768184 0.068945 3.250522 3.534313 0.031150 -0.017230 0.012290 18.356210 -10.776683 3.152169 -0.638061 -0.121500 -7.274897 7.100955 -3.641795 3.563667 -0.052892 -3.375986 3.292923 0.038120 0.177600 0.072260 -3.783578 -1.456141 -7.980954 10.996831 0.582822 10.284251 -1.038341 1.620409 0.158704 1.537666 -2.098291 -8.902212 -6.537785 -0.543889 38.352608 -5.110080 -0.125150 6.562150 -1.167899 1.995879 1.050523 8.860796 11.056401 1.313401 83.897840 -33.322464 -21.036685 -4.111812 3.163637 -0.170000 0.214220 -0.164320 0.066430 -1.971749 1.393950 4.745699 -4.906940 -13.097738 -3.180338 -90.162125 27.859457 -22.461118 2.621841 -2.042891 -0.008780 -0.017450 -0.022730 0.023470 
-0.155080 16.939170 -2.303360 -1.546827 -2.991294 3.795755 -15.074998 13.128968 3.318288 0.283333 -1.068512 -10.123263 -8.432568 4.307714 2.644657 0.116048 3.259700 3.525838 0.014970 -0.039820 0.002120 18.321226 -10.737279 3.185287 -0.570763 -0.029578 -7.526051 7.669750 -3.718650 3.819187 -0.054073 -3.329175 3.310498 0.002380 0.156670 0.065930 -3.726715 -1.668384 -8.114661 11.504691 0.274471 11.192982 -1.267094 1.704321 -1.261839 1.689400 -2.493258 -9.737265 -7.521884 -0.234016 39.315398 -4.710290 -0.312160 7.262660 -3.585613 -1.621370 1.702077 12.118860 11.244210 0.103530 79.549984 -21.370420 -11.284575 -4.095566 3.261012 -0.153620 0.184390 -0.146310 0.064900 0.172204 5.460318 5.530920 -8.333470 -12.848057 -4.249736 -86.929394 16.416141 -11.831236 2.738323 -2.105217 0.003980 -0.033950 -0.026630 0.030250 
